<?xml version="1.0" encoding="UTF-8"?>
<svg width="35px" height="41px" viewBox="0 0 35 41" version="1.1" xmlns="http://www.w3.org/2000/svg" xmlns:xlink="http://www.w3.org/1999/xlink">
    <!-- Generator: Sketch 45.2 (43514) - http://www.bohemiancoding.com/sketch -->
    <title>Shape</title>
    <desc>Created with Sketch.</desc>
    <defs></defs>
    <g id="styleguide" stroke="none" stroke-width="1" fill="none" fill-rule="evenodd">
        <g transform="translate(-864.000000, -1044.000000)" id="noun_1052494" fill-rule="nonzero" fill="#BC3057">
            <g transform="translate(864.000000, 1044.000000)">
                <path d="M29.7122987,5.11441208 C29.7122987,5.11441208 29.7122987,5.06570339 29.7122987,5.11441208 C22.9905,-1.60738665 12.0797542,-1.60738665 5.35795551,5.11441208 C5.35795551,5.11441208 5.35795551,5.11441208 5.35795551,5.11441208 C-1.36384322,11.8362108 -1.36384322,22.7956653 5.35795551,29.517464 L16.1712839,40.3307924 C16.5609534,40.7204619 17.0480403,40.9152966 17.5351271,40.9152966 C18.022214,40.9152966 18.5093009,40.7204619 18.8989703,40.3307924 L29.7122987,29.4687553 C36.4340975,22.7469566 36.4340975,11.8362108 29.7122987,5.11441208 Z M17.5351271,22.6495392 C13.6384322,22.6495392 10.4723676,19.4834746 10.4723676,15.5867797 C10.4723676,11.6900848 13.6384322,8.52402013 17.5351271,8.52402013 C21.431822,8.52402013 24.5978867,11.6900848 24.5978867,15.5867797 C24.5978867,19.4834746 21.431822,22.6495392 17.5351271,22.6495392 Z" id="Shape"></path>
            </g>
        </g>
    </g>
</svg>