<?xml version="1.0" encoding="UTF-8"?>
<svg width="14px" height="13px" viewBox="0 0 14 13" version="1.1" xmlns="http://www.w3.org/2000/svg" xmlns:xlink="http://www.w3.org/1999/xlink">
    <!-- Generator: Sketch 45.2 (43514) - http://www.bohemiancoding.com/sketch -->
    <title></title>
    <desc>Created with Sketch.</desc>
    <defs></defs>
    <g id="styleguide" stroke="none" stroke-width="1" fill="none" fill-rule="evenodd">
        <g transform="translate(-622.000000, -981.000000)" id="socialmedia" fill="#1F0810">
            <g transform="translate(510.000000, 973.000000)">
                <g id="icon/github" transform="translate(104.000000, 0.000000)">
                    <path d="M13.3571429,16.3214286 C13.3571429,16.544644 13.322266,16.7734363 13.2525112,17.0078125 C13.1827563,17.2421887 13.0627799,17.4542401 12.8925781,17.6439732 C12.7223764,17.8337063 12.5200905,17.9285714 12.2857143,17.9285714 C12.0513381,17.9285714 11.8490522,17.8337063 11.6788504,17.6439732 C11.5086487,17.4542401 11.3886722,17.2421887 11.3189174,17.0078125 C11.2491626,16.7734363 11.2142857,16.544644 11.2142857,16.3214286 C11.2142857,16.0982132 11.2491626,15.8694208 11.3189174,15.6350446 C11.3886722,15.4006685 11.5086487,15.188617 11.6788504,14.9988839 C11.8490522,14.8091508 12.0513381,14.7142857 12.2857143,14.7142857 C12.5200905,14.7142857 12.7223764,14.8091508 12.8925781,14.9988839 C13.0627799,15.188617 13.1827563,15.4006685 13.2525112,15.6350446 C13.322266,15.8694208 13.3571429,16.0982132 13.3571429,16.3214286 Z M18.7142857,16.3214286 C18.7142857,16.544644 18.6794088,16.7734363 18.609654,17.0078125 C18.5398992,17.2421887 18.4199227,17.4542401 18.249721,17.6439732 C18.0795192,17.8337063 17.8772333,17.9285714 17.6428571,17.9285714 C17.408481,17.9285714 17.206195,17.8337063 17.0359933,17.6439732 C16.8657916,17.4542401 16.7458151,17.2421887 16.6760603,17.0078125 C16.6063055,16.7734363 16.5714286,16.544644 16.5714286,16.3214286 C16.5714286,16.0982132 16.6063055,15.8694208 16.6760603,15.6350446 C16.7458151,15.4006685 16.8657916,15.188617 17.0359933,14.9988839 C17.206195,14.8091508 17.408481,14.7142857 17.6428571,14.7142857 C17.8772333,14.7142857 18.0795192,14.8091508 18.249721,14.9988839 C18.4199227,15.188617 18.5398992,15.4006685 18.609654,15.6350446 C18.6794088,15.8694208 18.7142857,16.0982132 18.7142857,16.3214286 Z M20.0535714,16.3214286 C20.0535714,15.6517824 19.861051,15.0825916 19.4760045,14.6138393 C19.0909579,14.1450869 18.5691997,13.9107143 17.9107143,13.9107143 C17.6819185,13.9107143 17.1378391,13.9693074 16.2784598,14.0864955 C15.8822525,14.1478798 15.4441988,14.1785714 14.9642857,14.1785714 C14.4843726,14.1785714 14.0463189,14.1478798 13.6501116,14.0864955 C12.8018931,13.9693074 12.2578137,13.9107143 12.0178571,13.9107143 C11.3593717,13.9107143 10.8376135,14.1450869 10.452567,14.6138393 C10.0675204,15.0825916 9.875,15.6517824 9.875,16.3214286 C9.875,16.8125025 9.96428482,17.2407906 10.1428571,17.6063058 C10.3214295,17.971821 10.5474317,18.2592065 10.8208705,18.468471 C11.0943094,18.6777354 11.4347078,18.8451445 11.8420759,18.9707031 C12.249444,19.0962618 12.6400651,19.1785712 13.0139509,19.2176339 C13.3878367,19.2566966 13.8035691,19.2762277 14.2611607,19.2762277 L15.6674107,19.2762277 C16.1250023,19.2762277 16.5407347,19.2566966 16.9146205,19.2176339 C17.2885063,19.1785712 17.6791274,19.0962618 18.0864955,18.9707031 C18.4938636,18.8451445 18.834262,18.6777354 19.1077009,18.468471 C19.3811398,18.2592065 19.607142,17.971821 19.7857143,17.6063058 C19.9642866,17.2407906 20.0535714,16.8125025 20.0535714,16.3214286 Z M21.9285714,14.8482143 C21.9285714,16.003354 21.7583722,16.9268939 21.4179688,17.6188616 C21.2059141,18.0485513 20.9115532,18.4196413 20.5348772,18.7321429 C20.1582012,19.0446444 19.76479,19.2845974 19.3546317,19.4520089 C18.9444734,19.6194205 18.4701478,19.7519526 17.9316406,19.8496094 C17.3931335,19.9472661 16.9146226,20.0086494 16.4960938,20.0337612 C16.0775649,20.0588729 15.6116097,20.0714286 15.0982143,20.0714286 C14.6629443,20.0714286 14.2667429,20.0630581 13.9095982,20.046317 C13.5524536,20.0295758 13.1409063,19.9946989 12.6749442,19.9416853 C12.208982,19.8886716 11.7834841,19.8049671 11.3984375,19.6905692 C11.0133909,19.5761713 10.6311403,19.4324785 10.2516741,19.2594866 C9.87220792,19.0864947 9.53459969,18.8604925 9.23883929,18.5814732 C8.94307888,18.302454 8.70312592,17.9815866 8.51897321,17.6188616 C8.17298934,16.9324742 8,16.0089344 8,14.8482143 C8,13.525663 8.37946049,12.4207634 9.13839286,11.5334821 C8.98772246,11.0758906 8.91238839,10.601565 8.91238839,10.1104911 C8.91238839,9.46316641 9.05468608,8.85491356 9.33928571,8.28571429 C9.9419673,8.28571429 10.4720959,8.39592524 10.9296875,8.61635045 C11.3872791,8.83677566 11.9146176,9.18135926 12.5117188,9.65011161 C13.3320354,9.45479813 14.1941919,9.35714286 15.0982143,9.35714286 C15.9241113,9.35714286 16.7053535,9.44642768 17.4419643,9.625 C18.0279047,9.16740843 18.5496629,8.8298002 19.0072545,8.61216518 C19.464846,8.39453016 19.9921845,8.28571429 20.5892857,8.28571429 C20.8738854,8.85491356 21.016183,9.46316641 21.016183,10.1104911 C21.016183,10.5959846 20.940849,11.0647299 20.7901786,11.5167411 C21.5491109,12.4096027 21.9285714,13.5200826 21.9285714,14.8482143 Z" id=""></path>
                </g>
            </g>
        </g>
    </g>
</svg>