<?xml version="1.0" encoding="UTF-8"?>
<svg width="15px" height="13px" viewBox="0 0 15 13" version="1.1" xmlns="http://www.w3.org/2000/svg" xmlns:xlink="http://www.w3.org/1999/xlink">
    <!-- Generator: Sketch 45.2 (43514) - http://www.bohemiancoding.com/sketch -->
    <title></title>
    <desc>Created with Sketch.</desc>
    <defs></defs>
    <g id="styleguide" stroke="none" stroke-width="1" fill="none" fill-rule="evenodd">
        <g transform="translate(-572.000000, -1001.000000)" id="socialmedia" fill="#1F0810">
            <g transform="translate(510.000000, 993.000000)">
                <g id="icon/twitter" transform="translate(54.000000, 0.000000)">
                    <path d="M22.9754464,10.2991071 C22.5517092,10.9189019 22.0394375,11.4469844 21.4386161,11.8833705 C21.4449405,11.9719126 21.4481027,12.1047238 21.4481027,12.281808 C21.4481027,13.1039848 21.3279402,13.9245681 21.0876116,14.7435826 C20.847283,15.5625971 20.4820523,16.3483965 19.9919085,17.1010045 C19.5017647,17.8536124 18.9183442,18.5192493 18.2416295,19.0979353 C17.5649148,19.6766212 16.7490747,20.1382981 15.7940848,20.4829799 C14.8390949,20.8276617 13.8177138,21 12.7299107,21 C11.0159885,21 9.44755176,20.5414852 8.02455357,19.624442 C8.24590884,19.6497397 8.49255816,19.6623884 8.76450893,19.6623884 C10.1875071,19.6623884 11.4555376,19.2260088 12.5686384,18.3532366 C11.9045726,18.3405877 11.3100845,18.1366277 10.7851562,17.7413504 C10.260228,17.3460732 9.89974056,16.8417069 9.70368304,16.2282366 C9.91238944,16.2598588 10.1052819,16.2756696 10.2823661,16.2756696 C10.5543168,16.2756696 10.8231014,16.2408858 11.0887277,16.171317 C10.3803908,16.0258549 9.79380813,15.6732729 9.32896205,15.1135603 C8.86411598,14.5538476 8.63169643,13.9040216 8.63169643,13.1640625 L8.63169643,13.1261161 C9.0617581,13.3664447 9.52343503,13.4960937 10.0167411,13.515067 C9.59932827,13.2367918 9.26730034,12.8731421 9.02064732,12.4241071 C8.7739943,11.9750722 8.65066964,11.4880979 8.65066964,10.9631696 C8.65066964,10.4066192 8.78980516,9.89118541 9.06808036,9.41685268 C9.83333716,10.3591937 10.7645964,11.1133714 11.8618862,11.6794085 C12.9591759,12.2454455 14.1339223,12.5600815 15.3861607,12.6233259 C15.3355652,12.3829973 15.3102679,12.1489967 15.3102679,11.921317 C15.3102679,11.0738425 15.609093,10.3512865 16.2067522,9.75362723 C16.8044115,9.15596799 17.5269675,8.85714286 18.374442,8.85714286 C19.2598631,8.85714286 20.0061354,9.17968427 20.6132812,9.82477679 C21.3026448,9.69196362 21.9508898,9.4453143 22.5580357,9.08482143 C22.3240316,9.81213161 21.8750033,10.374998 21.2109375,10.7734375 C21.7991101,10.7101931 22.3872738,10.5520846 22.9754464,10.2991071 Z" id=""></path>
                </g>
            </g>
        </g>
    </g>
</svg>