<?xml version="1.0" encoding="UTF-8"?>
<svg width="32px" height="32px" viewBox="0 0 32 32" version="1.1" xmlns="http://www.w3.org/2000/svg" xmlns:xlink="http://www.w3.org/1999/xlink">
    <!-- Generator: Sketch 45.2 (43514) - http://www.bohemiancoding.com/sketch -->
    <title>notification</title>
    <desc>Created with Sketch.</desc>
    <defs></defs>
    <g id="Styleguide" stroke="none" stroke-width="1" fill="none" fill-rule="evenodd">
        <g id="styleguide" transform="translate(-789.000000, -654.000000)" stroke="#4A4A4A">
            <g id="notification" transform="translate(790.000000, 655.000000)">
                <g>
                    <circle id="Oval" stroke-width="1.3" cx="15" cy="15" r="15"></circle>
                    <g id="noun_887294" transform="translate(16.285714, 14.442582) rotate(-360.000000) translate(-16.285714, -14.442582) translate(8.785714, 4.942582)" fill-rule="nonzero">
                        <path d="M11.671836,15.6549055 C12.0978644,16.6253666 11.6571062,17.758421 10.6855121,18.1833164 C9.71505097,18.6093448 8.58312961,18.1680202 8.15766767,17.196426 C8.04322918,16.9375231 7.99677395,16.6661565 8.00017311,16.3998887 L11.1925539,15 C11.3902719,15.1767565 11.5573975,15.3948695 11.671836,15.6549055 Z" id="Shape"></path>
                        <path d="M0.46681842,9.35506381 C-0.433959842,7.08895497 0.02436067,4.92878672 1.37099585,3.51586786 C1.31547618,3.43088878 1.25938999,3.35157497 1.21746697,3.25413229 C0.791438511,2.28423771 1.23276321,1.1534494 2.20322432,0.727987464 C3.17368543,0.301959003 4.30560679,0.74498328 4.73163525,1.71431134 C4.77185868,1.80608874 4.79395324,1.90126531 4.81774739,1.99587536 C6.83515078,1.9550854 8.82649392,3.18331639 9.8672044,5.27266874 C9.8672044,5.27266874 11.4087249,8.81176421 13.1015082,9.09332823 C13.1536287,9.09616087 14.0617719,9.11882196 14.3388037,9.78052574 C14.5999727,10.4065383 14.0623384,11.244432 13.127002,11.6472329 L2.99806199,16.012325 C2.06385862,16.4151259 1.03164605,16.2536656 0.810700436,15.6129234 C0.592587461,14.9812455 1.07130295,14.3937568 1.11662513,14.3416363 C2.07235653,12.8731978 0.46681842,9.35506381 0.46681842,9.35506381 Z" id="Shape"></path>
                    </g>
                </g>
            </g>
        </g>
    </g>
</svg>