<?xml version="1.0" encoding="UTF-8"?>
<svg width="15px" height="15px" viewBox="0 0 15 15" version="1.1" xmlns="http://www.w3.org/2000/svg" xmlns:xlink="http://www.w3.org/1999/xlink">
    <!-- Generator: Sketch 45.2 (43514) - http://www.bohemiancoding.com/sketch -->
    <title>search</title>
    <desc>Created with Sketch.</desc>
    <defs></defs>
    <g id="styleguide" stroke="none" stroke-width="1" fill="none" fill-rule="evenodd">
        <g transform="translate(-618.000000, -1193.000000)" id="search">
            <g transform="translate(610.000000, 1186.000000)">
                <g id="noun_966549" transform="translate(8.000000, 7.000000)" fill-rule="nonzero" fill="#4A4A4A">
                    <path d="M6.21518631,12.3363811 C3.74572556,12.3482754 1.5129117,10.869548 0.560185594,8.59123924 C-0.392540515,6.31293048 0.12295494,3.68493561 1.86577009,1.9353719 C3.60858525,0.185808187 6.23456824,-0.339839883 8.51654201,0.604074086 C10.7985158,1.54798805 12.2858614,3.77507037 12.2835109,6.24455864 C12.284342,9.60015709 9.5707629,12.3242438 6.21518631,12.3363811 Z M6.21518631,1.32175512 C4.22219607,1.30986011 2.41879764,2.50117462 1.64771987,4.33899688 C0.876642097,6.17681913 1.29014056,8.29825619 2.69498724,9.71195961 C4.09983393,11.125663 6.21863044,11.5524856 8.06126228,10.7929729 C9.90389411,10.0334602 11.1065186,8.23758428 11.1071489,6.24455864 C11.1128419,3.53544583 8.9242814,1.33308775 6.21518631,1.32175512 Z" id="Shape"></path>
                    <polygon id="Shape" points="14.0017926 14.8330297 9.94106713 10.7943335 10.7723042 9.96309639 14.8330297 14.000324"></polygon>
                </g>
                <circle id="Oval" cx="15" cy="15" r="15"></circle>
                <circle id="Oval-2" fill="#4A4A4A" cx="14.4378134" cy="13.4378134" r="5.43781337"></circle>
            </g>
        </g>
    </g>
</svg>