<?xml version="1.0" encoding="UTF-8"?>
<svg width="7px" height="12px" viewBox="0 0 7 12" version="1.1" xmlns="http://www.w3.org/2000/svg" xmlns:xlink="http://www.w3.org/1999/xlink">
    <!-- Generator: Sketch 45.2 (43514) - http://www.bohemiancoding.com/sketch -->
    <title></title>
    <desc>Created with Sketch.</desc>
    <defs></defs>
    <g id="-jobs" stroke="none" stroke-width="1" fill="none" fill-rule="evenodd">
        <g id="jobs-article" transform="translate(-128.000000, -190.000000)" fill="#FFFFFF">
            <g id="label/instant-copy" transform="translate(115.000000, 181.000000)">
                <path d="M19.5052262,9.92772126 C19.5052262,10.0245922 19.4679687,10.1102845 19.3934526,10.1848006 L15.0007483,14.5775049 L19.3934526,18.9702092 C19.4679687,19.0447254 19.5052262,19.1304176 19.5052262,19.2272886 C19.5052262,19.3241596 19.4679687,19.4098519 19.3934526,19.484368 L18.8345843,20.0432362 C18.7600682,20.1177524 18.6743759,20.1550099 18.5775049,20.1550099 C18.480634,20.1550099 18.3949417,20.1177524 18.3204256,20.0432362 L13.1117736,14.8345843 C13.0372575,14.7600682 13,14.6743759 13,14.5775049 C13,14.480634 13.0372575,14.3949417 13.1117736,14.3204256 L18.3204256,9.11177365 C18.3949417,9.03725751 18.480634,9 18.5775049,9 C18.6743759,9 18.7600682,9.03725751 18.8345843,9.11177365 L19.3934526,9.67064188 C19.4679687,9.74515801 19.5052262,9.83085029 19.5052262,9.92772126 Z" id=""></path>
            </g>
        </g>
    </g>
</svg>