<?xml version="1.0" encoding="UTF-8"?>
<svg width="12px" height="11px" viewBox="0 0 12 11" version="1.1" xmlns="http://www.w3.org/2000/svg" xmlns:xlink="http://www.w3.org/1999/xlink">
    <!-- Generator: Sketch 45.2 (43514) - http://www.bohemiancoding.com/sketch -->
    <title></title>
    <desc>Created with Sketch.</desc>
    <defs></defs>
    <g id="Symbols" stroke="none" stroke-width="1" fill="none" fill-rule="evenodd">
        <g id="label/featured" transform="translate(-15.000000, -10.000000)" fill="#D15675">
            <g id="">
                <path d="M26.1428571,14.1183036 C26.1428571,14.2165183 26.084822,14.3236601 25.96875,14.4397321 L23.5379464,16.8102679 L24.1138393,20.1584821 C24.1183036,20.1897323 24.1205357,20.2343747 24.1205357,20.2924107 C24.1205357,20.3861612 24.0970984,20.4654015 24.0502232,20.5301339 C24.003348,20.5948664 23.9352683,20.6272321 23.8459821,20.6272321 C23.7611603,20.6272321 23.6718755,20.6004467 23.578125,20.546875 L20.5714286,18.9665179 L17.5647321,20.546875 C17.4665174,20.6004467 17.3772325,20.6272321 17.296875,20.6272321 C17.2031245,20.6272321 17.1328127,20.5948664 17.0859375,20.5301339 C17.0390623,20.4654015 17.015625,20.3861612 17.015625,20.2924107 C17.015625,20.2656249 17.0200892,20.2209825 17.0290179,20.1584821 L17.6049107,16.8102679 L15.1674107,14.4397321 C15.055803,14.3191958 15,14.212054 15,14.1183036 C15,13.9531242 15.1249987,13.8504466 15.375,13.8102679 L18.7366071,13.3214286 L20.2433036,10.2745536 C20.3281254,10.0915169 20.4374993,10 20.5714286,10 C20.7053578,10 20.8147317,10.0915169 20.8995536,10.2745536 L22.40625,13.3214286 L25.7678571,13.8102679 C26.0178584,13.8504466 26.1428571,13.9531242 26.1428571,14.1183036 Z"></path>
            </g>
        </g>
    </g>
</svg>