<?xml version="1.0" encoding="UTF-8"?>
<svg width="6px" height="12px" viewBox="0 0 6 12" version="1.1" xmlns="http://www.w3.org/2000/svg" xmlns:xlink="http://www.w3.org/1999/xlink">
    <!-- Generator: Sketch 45.2 (43514) - http://www.bohemiancoding.com/sketch -->
    <title></title>
    <desc>Created with Sketch.</desc>
    <defs></defs>
    <g id="-jobs" stroke="none" stroke-width="1" fill="none" fill-rule="evenodd">
        <g id="jobs" transform="translate(-456.000000, -220.000000)" fill="#D15675">
            <g id="label/instant" transform="translate(442.000000, 211.000000)">
                <path d="M19.9263393,12.5044643 C20.0066968,12.5937504 20.0223217,12.6919637 19.9732143,12.7991071 L16.3571429,20.546875 C16.2991069,20.6584827 16.2053578,20.7142857 16.0758929,20.7142857 C16.0580356,20.7142857 16.0267859,20.7098215 15.9821429,20.7008929 C15.9062496,20.6785713 15.8493305,20.636161 15.8113839,20.5736607 C15.7734373,20.5111604 15.7633928,20.4441968 15.78125,20.3727679 L17.1004464,14.9620536 L14.3816964,15.6383929 C14.3638392,15.6428572 14.3370537,15.6450893 14.3013393,15.6450893 C14.2209817,15.6450893 14.151786,15.620536 14.09375,15.5714286 C14.0133925,15.504464 13.9843749,15.4174112 14.0066964,15.3102679 L15.3526786,9.78571429 C15.3705358,9.72321397 15.4062497,9.6718752 15.4598214,9.63169643 C15.5133931,9.59151766 15.5758925,9.57142857 15.6473214,9.57142857 L17.84375,9.57142857 C17.9285719,9.57142857 17.9999997,9.59933008 18.0580357,9.65513393 C18.1160717,9.71093778 18.1450893,9.77678533 18.1450893,9.85267857 C18.1450893,9.88839304 18.1339287,9.92857121 18.1116071,9.97321429 L16.9665179,13.0736607 L19.6183036,12.4174107 C19.654018,12.4084821 19.6808035,12.4040179 19.6986607,12.4040179 C19.7834826,12.4040179 19.8593747,12.4374997 19.9263393,12.5044643 Z" id=""></path>
            </g>
        </g>
    </g>
</svg>