<?xml version="1.0" encoding="UTF-8"?>
<svg width="12px" height="11px" viewBox="0 0 12 11" version="1.1" xmlns="http://www.w3.org/2000/svg" xmlns:xlink="http://www.w3.org/1999/xlink">
    <!-- Generator: Sketch 45.2 (43514) - http://www.bohemiancoding.com/sketch -->
    <title></title>
    <desc>Created with Sketch.</desc>
    <defs></defs>
    <g id="-jobs" stroke="none" stroke-width="1" fill="none" fill-rule="evenodd">
        <g id="jobs" transform="translate(-773.000000, -221.000000)" fill="#FFFFFF">
            <g id="label/instant-copy" transform="translate(644.000000, 211.000000)">
                <path d="M133.285714,11.7142857 L136.714286,11.7142857 L136.714286,10.8571429 L133.285714,10.8571429 L133.285714,11.7142857 Z M130.928571,11.7142857 L130.928571,20.2857143 L130.5,20.2857143 C130.089284,20.2857143 129.736609,20.1383943 129.441964,19.84375 C129.14732,19.5491057 129,19.1964306 129,18.7857143 L129,13.2142857 C129,12.8035694 129.14732,12.4508943 129.441964,12.15625 C129.736609,11.8616057 130.089284,11.7142857 130.5,11.7142857 L130.928571,11.7142857 Z M138.428571,11.7142857 L138.428571,20.2857143 L131.571429,20.2857143 L131.571429,11.7142857 L132.428571,11.7142857 L132.428571,10.6428571 C132.428571,10.4642848 132.491071,10.3125006 132.616071,10.1875 C132.741072,10.0624994 132.892856,10 133.071429,10 L136.928571,10 C137.107144,10 137.258928,10.0624994 137.383929,10.1875 C137.508929,10.3125006 137.571429,10.4642848 137.571429,10.6428571 L137.571429,11.7142857 L138.428571,11.7142857 Z M141,13.2142857 L141,18.7857143 C141,19.1964306 140.85268,19.5491057 140.558036,19.84375 C140.263391,20.1383943 139.910716,20.2857143 139.5,20.2857143 L139.071429,20.2857143 L139.071429,11.7142857 L139.5,11.7142857 C139.910716,11.7142857 140.263391,11.8616057 140.558036,12.15625 C140.85268,12.4508943 141,12.8035694 141,13.2142857 Z" id=""></path>
            </g>
        </g>
    </g>
</svg>