<?xml version="1.0" encoding="UTF-8"?>
<svg width="10px" height="12px" viewBox="0 0 10 12" version="1.1" xmlns="http://www.w3.org/2000/svg" xmlns:xlink="http://www.w3.org/1999/xlink">
    <!-- Generator: Sketch 45.2 (43514) - http://www.bohemiancoding.com/sketch -->
    <title>Shape</title>
    <desc>Created with Sketch.</desc>
    <defs></defs>
    <g id="-jobs" stroke="none" stroke-width="1" fill="none" fill-rule="evenodd">
        <g id="jobs" transform="translate(-922.000000, -220.000000)" fill-rule="nonzero" fill="#FFFFFF">
            <g id="label/instant-copy-2" transform="translate(808.000000, 211.000000)">
                <path d="M122.536068,10.4639321 C122.536068,10.4639321 122.536068,10.4497878 122.536068,10.4639321 C120.584158,8.51202263 117.415842,8.51202263 115.463932,10.4639321 C115.463932,10.4639321 115.463932,10.4639321 115.463932,10.4639321 C113.512023,12.4158416 113.512023,15.5983027 115.463932,17.5502122 L118.60396,20.6902405 C118.717115,20.8033946 118.858557,20.8599717 119,20.8599717 C119.141443,20.8599717 119.282885,20.8033946 119.39604,20.6902405 L122.536068,17.5360679 C124.487977,15.5841584 124.487977,12.4158416 122.536068,10.4639321 Z M119,15.5558699 C117.868458,15.5558699 116.949081,14.6364922 116.949081,13.5049505 C116.949081,12.3734088 117.868458,11.4540311 119,11.4540311 C120.131542,11.4540311 121.050919,12.3734088 121.050919,13.5049505 C121.050919,14.6364922 120.131542,15.5558699 119,15.5558699 Z" id="Shape"></path>
            </g>
        </g>
    </g>
</svg>