<?xml version="1.0" encoding="UTF-8"?>
<svg width="12px" height="14px" viewBox="0 0 12 14" version="1.1" xmlns="http://www.w3.org/2000/svg" xmlns:xlink="http://www.w3.org/1999/xlink">
    <!-- Generator: Sketch 45.2 (43514) - http://www.bohemiancoding.com/sketch -->
    <title>Shape</title>
    <desc>Created with Sketch.</desc>
    <defs></defs>
    <g id="-jobs" stroke="none" stroke-width="1" fill="none" fill-rule="evenodd">
        <g id="jobs-article" transform="translate(-782.000000, -574.000000)" fill-rule="nonzero" fill="#BC3057">
            <g id="sidebar" transform="translate(701.000000, 362.000000)">
                <g id="location" transform="translate(81.000000, 210.000000)">
                    <g transform="translate(0.000000, 2.000000)" id="Shape">
                        <path d="M9.79940609,1.68059409 C9.79940609,1.68059409 9.79940609,1.66435646 9.79940609,1.68059409 C7.55861398,-0.560198028 3.9213862,-0.560198028 1.68059409,1.68059409 C1.68059409,1.68059409 1.68059409,1.68059409 1.68059409,1.68059409 C-0.560198028,3.9213862 -0.560198028,7.5748516 1.68059409,9.81564372 L5.28534662,13.4203962 C5.41524761,13.5502972 5.57762385,13.6152477 5.74000009,13.6152477 C5.90237633,13.6152477 6.06475257,13.5502972 6.19465356,13.4203962 L9.79940609,9.79940609 C12.0401982,7.55861398 12.0401982,3.9213862 9.79940609,1.68059409 Z M5.74000009,7.52613873 C4.44099017,7.52613873 3.38554461,6.47069317 3.38554461,5.17168325 C3.38554461,3.87267333 4.44099017,2.81722777 5.74000009,2.81722777 C7.03901001,2.81722777 8.09445557,3.87267333 8.09445557,5.17168325 C8.09445557,6.47069317 7.03901001,7.52613873 5.74000009,7.52613873 Z"></path>
                    </g>
                </g>
            </g>
        </g>
    </g>
</svg>