<?xml version="1.0" encoding="UTF-8"?>
<svg width="60px" height="60px" viewBox="0 0 60 60" version="1.1" xmlns="http://www.w3.org/2000/svg" xmlns:xlink="http://www.w3.org/1999/xlink">
    <!-- Generator: Sketch 46.2 (44496) - http://www.bohemiancoding.com/sketch -->
    <title>countries</title>
    <desc>Created with Sketch.</desc>
    <defs></defs>
    <g id="-home" stroke="none" stroke-width="1" fill="none" fill-rule="evenodd">
        <g id="home" transform="translate(-224.000000, -947.000000)" fill="#FFFFFF">
            <g id="Group" transform="translate(0.000000, 470.000000)">
                <g id="googlemaps">
                    <g id="Group-4" transform="translate(0.000000, 405.000000)">
                        <g id="Group-3" transform="translate(224.000000, 64.000000)">
                            <path d="M30,8 C35.4427355,8 40.4622166,9.34113242 45.0585937,12.0234375 C49.6549709,14.7057426 53.2942574,18.3450291 55.9765625,22.9414063 C58.6588676,27.5377834 60,32.5572645 60,38 C60,43.4427355 58.6588676,48.4622166 55.9765625,53.0585937 C53.2942574,57.6549709 49.6549709,61.2942574 45.0585937,63.9765625 C40.4622166,66.6588676 35.4427355,68 30,68 C24.5572645,68 19.5377834,66.6588676 14.9414063,63.9765625 C10.3450291,61.2942574 6.70574258,57.6549709 4.0234375,53.0585937 C1.34113242,48.4622166 0,43.4427355 0,38 C0,32.5572645 1.34113242,27.5377834 4.0234375,22.9414063 C6.70574258,18.3450291 10.3450291,14.7057426 14.9414063,12.0234375 C19.5377834,9.34113242 24.5572645,8 30,8 Z M40.703125,28.3515625 C40.6510414,28.3776043 40.5273447,28.501301 40.3320312,28.7226563 C40.1367178,28.9440115 39.9609383,29.0677082 39.8046875,29.09375 C39.8567711,29.09375 39.9153643,29.0286465 39.9804687,28.8984375 C40.0455732,28.7682285 40.1106768,28.6250008 40.1757813,28.46875 C40.2408857,28.3124992 40.2864582,28.2213543 40.3125,28.1953125 C40.4687508,28.0130199 40.7552063,27.8177094 41.171875,27.609375 C41.5364602,27.4531242 42.2135367,27.2968758 43.203125,27.140625 C44.0885461,26.9322906 44.752602,27.0755184 45.1953125,27.5703125 C45.1432289,27.5182289 45.2669256,27.3489598 45.5664062,27.0625 C45.8658869,26.7760402 46.0546871,26.6197918 46.1328125,26.59375 C46.2109379,26.5416664 46.4062484,26.4830732 46.71875,26.4179687 C47.0312516,26.3528643 47.2265621,26.255209 47.3046875,26.125 L47.3828125,25.265625 C47.0703109,25.2916668 46.8424486,25.2005219 46.6992187,24.9921875 C46.5559889,24.7838531 46.4713543,24.5104184 46.4453125,24.171875 C46.4453125,24.2239586 46.3671883,24.3281242 46.2109375,24.484375 C46.2109375,24.3020824 46.1523443,24.1979168 46.0351562,24.171875 C45.9179682,24.1458332 45.7682301,24.1588539 45.5859375,24.2109375 C45.4036449,24.2630211 45.2864586,24.2760418 45.234375,24.25 C44.973957,24.1718746 44.7786465,24.0742193 44.6484375,23.9570312 C44.5182285,23.8398432 44.4140629,23.6250016 44.3359375,23.3125 C44.2578121,22.9999984 44.2057293,22.8046879 44.1796875,22.7265625 C44.1276039,22.5963535 44.0039072,22.4531258 43.8085937,22.296875 C43.6132803,22.1406242 43.4895836,22.0104172 43.4375,21.90625 C43.4114582,21.8541664 43.3789064,21.7825525 43.3398437,21.6914063 C43.3007811,21.60026 43.2617189,21.5156254 43.2226562,21.4375 C43.1835936,21.3593746 43.1315107,21.2877607 43.0664062,21.2226562 C43.0013018,21.1575518 42.9296879,21.125 42.8515625,21.125 C42.7734371,21.125 42.6822922,21.1901035 42.578125,21.3203125 C42.4739578,21.4505215 42.3763025,21.5807285 42.2851562,21.7109375 C42.19401,21.8411465 42.1354168,21.90625 42.109375,21.90625 C42.0312496,21.8541664 41.9531254,21.8346354 41.875,21.8476563 C41.7968746,21.8606771 41.7382814,21.8736979 41.6992187,21.8867188 C41.6601561,21.8997396 41.6015629,21.9388018 41.5234375,22.0039062 C41.4453121,22.0690107 41.3802086,22.1145832 41.328125,22.140625 C41.2499996,22.1927086 41.1393236,22.2317707 40.9960938,22.2578125 C40.8528639,22.2838543 40.7421879,22.3098957 40.6640625,22.3359375 C41.0546895,22.2057285 41.0416687,22.0625008 40.625,21.90625 C40.364582,21.8020828 40.1562508,21.7630207 40,21.7890625 C40.2343762,21.6848953 40.3320314,21.5286469 40.2929687,21.3203125 C40.2539061,21.1119781 40.1432301,20.9296883 39.9609375,20.7734375 L40.15625,20.7734375 C40.1302082,20.6692703 40.0195322,20.5585943 39.8242187,20.4414062 C39.6289053,20.3242182 39.401043,20.2135422 39.140625,20.109375 C38.880207,20.0052078 38.7109379,19.9270836 38.6328125,19.875 C38.4244781,19.744791 37.9817742,19.6210943 37.3046875,19.5039063 C36.6276008,19.3867182 36.1979176,19.3802078 36.015625,19.484375 C35.885416,19.6406258 35.8268229,19.7773432 35.8398437,19.8945312 C35.8528646,20.0117193 35.9049475,20.1940092 35.9960937,20.4414062 C36.08724,20.6888033 36.1328125,20.8515621 36.1328125,20.9296875 C36.1588543,21.0859383 36.0872404,21.2552074 35.9179687,21.4375 C35.7486971,21.6197926 35.6640625,21.776041 35.6640625,21.90625 C35.6640625,22.0885426 35.8463523,22.2903635 36.2109375,22.5117188 C36.5755227,22.733074 36.7057297,23.0130191 36.6015625,23.3515625 C36.5234371,23.5598969 36.3151059,23.7682281 35.9765625,23.9765625 C35.6380191,24.1848969 35.4296879,24.3411453 35.3515625,24.4453125 C35.2213535,24.6536469 35.2018225,24.8945299 35.2929687,25.1679688 C35.384115,25.4414076 35.5208324,25.6562492 35.703125,25.8125 C35.7552086,25.8645836 35.7747396,25.9166664 35.7617188,25.96875 C35.7486979,26.0208336 35.7031254,26.0794268 35.625,26.1445312 C35.5468746,26.2096357 35.4752607,26.2617186 35.4101562,26.3007813 C35.3450518,26.3398439 35.2604172,26.3854164 35.15625,26.4375 L35.0390625,26.515625 C34.7526027,26.645834 34.4856783,26.5677098 34.2382812,26.28125 C33.9908842,25.9947902 33.8151047,25.656252 33.7109375,25.265625 C33.5286449,24.6145801 33.3203137,24.223959 33.0859375,24.09375 C32.4869762,23.8854156 32.1093758,23.8984363 31.953125,24.1328125 C31.822916,23.7942691 31.2890672,23.4557309 30.3515625,23.1171875 C29.7005176,22.8828113 28.9453168,22.8307285 28.0859375,22.9609375 C28.2421883,22.9348957 28.2421883,22.7395852 28.0859375,22.375 C27.9036449,21.984373 27.6562516,21.8281246 27.34375,21.90625 C27.4218754,21.7499992 27.4739582,21.5221369 27.5,21.2226562 C27.5260418,20.9231756 27.5390625,20.7473961 27.5390625,20.6953125 C27.6171879,20.3567691 27.7734363,20.057293 28.0078125,19.796875 C28.0338543,19.7708332 28.1249992,19.6601572 28.28125,19.4648438 C28.4375008,19.2695303 28.5611975,19.0937508 28.6523438,18.9375 C28.74349,18.7812492 28.7500004,18.703125 28.671875,18.703125 C29.5833379,18.8072922 30.234373,18.6640645 30.625,18.2734375 C30.755209,18.1432285 30.9049471,17.9218766 31.0742187,17.609375 C31.2434904,17.2968734 31.3802078,17.0755215 31.484375,16.9453125 C31.7187512,16.7890617 31.901041,16.7174479 32.03125,16.7304688 C32.161459,16.7434896 32.3502592,16.8151035 32.5976562,16.9453125 C32.8450533,17.0755215 33.0338535,17.140625 33.1640625,17.140625 C33.5286477,17.1666668 33.7304686,17.0234391 33.7695312,16.7109375 C33.8085939,16.3984359 33.7109387,16.1380219 33.4765625,15.9296875 C33.7890641,15.9557293 33.8281262,15.7343773 33.59375,15.265625 C33.4895828,15.0833324 33.3854172,14.9661461 33.28125,14.9140625 C32.9687484,14.8098953 32.6171895,14.8749988 32.2265625,15.109375 C32.0182281,15.2135422 32.0442695,15.3177078 32.3046875,15.421875 C32.2786457,15.3958332 32.154949,15.5325506 31.9335938,15.8320313 C31.7122385,16.1315119 31.4973969,16.3593742 31.2890625,16.515625 C31.0807281,16.6718758 30.8723969,16.6067723 30.6640625,16.3203125 C30.6380207,16.2942707 30.5664068,16.1184912 30.4492187,15.7929687 C30.3320307,15.4674463 30.208334,15.2916668 30.078125,15.265625 C29.8697906,15.265625 29.6614594,15.4609355 29.453125,15.8515625 C29.5312504,15.6432281 29.3880227,15.4479176 29.0234375,15.265625 C28.6588523,15.0833324 28.3463555,14.9791668 28.0859375,14.953125 C28.5807316,14.6406234 28.476566,14.2890645 27.7734375,13.8984375 C27.5911449,13.7942703 27.3242205,13.7291668 26.9726562,13.703125 C26.621092,13.6770832 26.3671883,13.729166 26.2109375,13.859375 C26.0807285,14.0416676 26.0091146,14.1914057 25.9960937,14.3085938 C25.9830729,14.4257818 26.0481764,14.5299475 26.1914063,14.6210937 C26.3346361,14.71224 26.4713535,14.7838539 26.6015625,14.8359375 C26.7317715,14.8880211 26.8815096,14.9401039 27.0507813,14.9921875 C27.2200529,15.0442711 27.3307289,15.0833332 27.3828125,15.109375 C27.7473977,15.369793 27.8515633,15.5520828 27.6953125,15.65625 C27.6432289,15.6822918 27.5325529,15.7278643 27.3632812,15.7929687 C27.1940096,15.8580732 27.0442715,15.9166664 26.9140625,15.96875 C26.7838535,16.0208336 26.7057293,16.0729164 26.6796875,16.125 C26.6015621,16.2291672 26.6015621,16.411457 26.6796875,16.671875 C26.7578129,16.932293 26.7317715,17.1145828 26.6015625,17.21875 C26.4713535,17.088541 26.3541672,16.8606787 26.25,16.5351562 C26.1458328,16.2096338 26.0546879,15.9947922 25.9765625,15.890625 C26.1588551,16.1250012 25.8333375,16.2031254 25,16.125 L24.609375,16.0859375 C24.5052078,16.0859375 24.2968766,16.1119789 23.984375,16.1640625 C23.6718734,16.2161461 23.404949,16.2291668 23.1835938,16.203125 C22.9622385,16.1770832 22.786459,16.0729176 22.65625,15.890625 C22.5520828,15.6822906 22.5520828,15.4218766 22.65625,15.109375 C22.6822918,15.0052078 22.7343746,14.9791664 22.8125,15.03125 C22.7083328,14.9531246 22.5651051,14.8294279 22.3828125,14.6601562 C22.2005199,14.4908846 22.0703129,14.3802086 21.9921875,14.328125 C20.7942648,14.718752 19.5703187,15.2526008 18.3203125,15.9296875 C18.4765633,15.9557293 18.6328117,15.9427086 18.7890625,15.890625 C18.9192715,15.8385414 19.0885406,15.7539068 19.296875,15.6367188 C19.5052094,15.5195307 19.6354164,15.4479168 19.6875,15.421875 C20.5729211,15.0572898 21.1197906,14.9661449 21.328125,15.1484375 L21.5234375,14.953125 C21.8880227,15.3697938 22.1484367,15.6953113 22.3046875,15.9296875 C22.1223949,15.8255203 21.7317738,15.8124996 21.1328125,15.890625 C20.6119766,16.0468758 20.3255211,16.2031242 20.2734375,16.359375 C20.4557301,16.6718766 20.5208336,16.9062492 20.46875,17.0625 C20.3645828,16.9843746 20.2148447,16.8541676 20.0195312,16.671875 C19.8242178,16.4895824 19.6354176,16.3463547 19.453125,16.2421875 C19.2708324,16.1380203 19.0755219,16.0729168 18.8671875,16.046875 C18.4505187,16.046875 18.1640633,16.0598957 18.0078125,16.0859375 C14.2057102,18.1692813 11.1458449,21.0598773 8.828125,24.7578125 C9.01041758,24.9401051 9.16666602,25.0442707 9.296875,25.0703125 C9.40104219,25.0963543 9.4661457,25.2135406 9.4921875,25.421875 C9.5182293,25.6302094 9.55078105,25.7734371 9.58984375,25.8515625 C9.62890645,25.9296879 9.77864453,25.8906258 10.0390625,25.734375 C10.2734387,25.9427094 10.3125008,26.1901027 10.15625,26.4765625 C10.1822918,26.4505207 10.7552027,26.8020797 11.875,27.53125 C12.3697941,27.9739605 12.6432289,28.2473953 12.6953125,28.3515625 C12.7734379,28.6380223 12.6432309,28.8723949 12.3046875,29.0546875 C12.2786457,29.0026039 12.1614594,28.8854176 11.953125,28.703125 C11.7447906,28.5208324 11.6276043,28.4687496 11.6015625,28.546875 C11.5234371,28.677084 11.5299475,28.917967 11.6210937,29.2695313 C11.71224,29.6210955 11.8489574,29.7838543 12.03125,29.7578125 C11.8489574,29.7578125 11.7252607,29.9661438 11.6601563,30.3828125 C11.5950518,30.7994812 11.5625,31.2617162 11.5625,31.7695313 C11.5625,32.2773463 11.5494793,32.5833328 11.5234375,32.6875 L11.6015625,32.7265625 C11.5234371,33.0390641 11.595051,33.4882783 11.8164062,34.0742187 C12.0377615,34.6601592 12.3177066,34.9140629 12.65625,34.8359375 C12.3177066,34.9140629 12.5781207,35.4739531 13.4375,36.515625 C13.5937508,36.7239594 13.6979164,36.8411457 13.75,36.8671875 C13.8281254,36.9192711 13.9843738,37.0169264 14.21875,37.1601562 C14.4531262,37.3033861 14.6484367,37.4335932 14.8046875,37.5507813 C14.9609383,37.6679693 15.0911453,37.8046867 15.1953125,37.9609375 C15.2994797,38.0911465 15.4296867,38.3841123 15.5859375,38.8398438 C15.7421883,39.2955752 15.9244781,39.6015617 16.1328125,39.7578125 C16.0807289,39.9140633 16.2044256,40.1744773 16.5039062,40.5390625 C16.8033869,40.9036477 16.9401043,41.2031238 16.9140625,41.4375 C16.8880207,41.4375 16.8554689,41.4505207 16.8164062,41.4765625 C16.7773436,41.5026043 16.7447918,41.515625 16.71875,41.515625 C16.7968754,41.6979176 16.9986963,41.8802074 17.3242187,42.0625 C17.6497412,42.2447926 17.8515621,42.4140617 17.9296875,42.5703125 C17.9557293,42.6484379 17.9817707,42.7786449 18.0078125,42.9609375 C18.0338543,43.1432301 18.0729164,43.2864578 18.125,43.390625 C18.1770836,43.4947922 18.2812492,43.5208336 18.4375,43.46875 C18.4895836,42.9479141 18.1770867,42.1406305 17.5,41.046875 C17.109373,40.3958301 16.8880211,40.0182297 16.8359375,39.9140625 C16.7578121,39.7838535 16.6861982,39.5820326 16.6210938,39.3085937 C16.5559893,39.0351549 16.4973961,38.8463547 16.4453125,38.7421875 C16.4973961,38.7421875 16.5755203,38.7617186 16.6796875,38.8007812 C16.7838547,38.8398439 16.8945307,38.8854164 17.0117187,38.9375 C17.1289068,38.9895836 17.2265621,39.0416664 17.3046875,39.09375 C17.3828129,39.1458336 17.4088543,39.1848957 17.3828125,39.2109375 C17.3046871,39.3932301 17.3307285,39.6210924 17.4609375,39.8945312 C17.5911465,40.1679701 17.7473949,40.4088531 17.9296875,40.6171875 C18.1119801,40.8255219 18.333332,41.0729152 18.59375,41.359375 C18.854168,41.6458348 19.0104164,41.8151039 19.0625,41.8671875 C19.2187508,42.0234383 19.4010406,42.277342 19.609375,42.6289062 C19.8177094,42.9804705 19.8177094,43.15625 19.609375,43.15625 C19.8437512,43.15625 20.1041652,43.2929674 20.390625,43.5664063 C20.6770848,43.8398451 20.8984367,44.0937488 21.0546875,44.328125 C21.1848965,44.5364594 21.2890621,44.8749977 21.3671875,45.34375 C21.4453129,45.8125023 21.5104164,46.1249992 21.5625,46.28125 C21.6145836,46.4635426 21.7252596,46.6393221 21.8945312,46.8085938 C22.0638029,46.9778654 22.2265617,47.1015621 22.3828125,47.1796875 L23.0078125,47.4921875 C23.2682305,47.6223965 23.4374996,47.7135414 23.515625,47.765625 C23.645834,47.8177086 23.886717,47.954426 24.2382812,48.1757813 C24.5898455,48.3971365 24.8697906,48.5468746 25.078125,48.625 C25.338543,48.7291672 25.5468742,48.78125 25.703125,48.78125 C25.8593758,48.78125 26.048176,48.7486982 26.2695312,48.6835937 C26.4908865,48.6184893 26.666666,48.5729168 26.796875,48.546875 C27.187502,48.4947914 27.5651023,48.690102 27.9296875,49.1328125 C28.2942727,49.575523 28.5677074,49.8489578 28.75,49.953125 C29.6875047,50.4479191 30.4036434,50.5911469 30.8984375,50.3828125 C30.8463539,50.4088543 30.8528643,50.5065096 30.9179687,50.6757813 C30.9830732,50.8450529 31.0872389,51.0468738 31.2304687,51.28125 C31.3736986,51.5156262 31.490885,51.7044264 31.5820312,51.8476562 C31.6731775,51.9908861 31.7447914,52.1015621 31.796875,52.1796875 C31.927084,52.3359383 32.1614566,52.5312488 32.5,52.765625 C32.8385434,53.0000012 33.072916,53.1953117 33.203125,53.3515625 C33.3593758,53.2473953 33.4505207,53.130209 33.4765625,53 C33.3984371,53.2083344 33.489582,53.4687484 33.75,53.78125 C34.010418,54.0937516 34.2447906,54.2239586 34.453125,54.171875 C34.8177102,54.0937496 35,53.6770871 35,52.921875 C34.1927043,53.312502 33.5546898,53.0781293 33.0859375,52.21875 C33.0859375,52.1927082 33.0533857,52.1210943 32.9882812,52.0039063 C32.9231768,51.8867182 32.8710939,51.7760422 32.8320312,51.671875 C32.7929686,51.5677078 32.7604168,51.4570318 32.734375,51.3398437 C32.7083332,51.2226557 32.7083332,51.1250004 32.734375,51.046875 C32.7604168,50.9687496 32.8255203,50.9296875 32.9296875,50.9296875 C33.1640637,50.9296875 33.2942707,50.884115 33.3203125,50.7929687 C33.3463543,50.7018225 33.3203129,50.5390637 33.2421875,50.3046875 C33.1640621,50.0703113 33.1119793,49.9010422 33.0859375,49.796875 C33.0598957,49.5885406 32.916668,49.3281266 32.65625,49.015625 C32.395832,48.7031234 32.2395836,48.5078129 32.1875,48.4296875 C32.057291,48.6640637 31.8489598,48.7682293 31.5625,48.7421875 C31.2760402,48.7161457 31.067709,48.5989594 30.9375,48.390625 C30.9375,48.4166668 30.9179689,48.4882807 30.8789063,48.6054687 C30.8398436,48.7226568 30.8203125,48.8072914 30.8203125,48.859375 C30.4817691,48.859375 30.2864586,48.8463543 30.234375,48.8203125 C30.2604168,48.7421871 30.2929686,48.5143248 30.3320313,48.1367187 C30.3710939,47.7591127 30.4166664,47.4661469 30.46875,47.2578125 C30.4947918,47.1536453 30.5664057,46.9973969 30.6835937,46.7890625 C30.8007818,46.5807281 30.8984371,46.3919279 30.9765625,46.2226562 C31.0546879,46.0533846 31.1067707,45.8906258 31.1328125,45.734375 C31.1588543,45.5781242 31.1002611,45.4544275 30.9570312,45.3632812 C30.8138014,45.272135 30.5859391,45.2395832 30.2734375,45.265625 C29.7786434,45.2916668 29.4401051,45.5520809 29.2578125,46.046875 C29.2317707,46.1250004 29.1927086,46.2617178 29.140625,46.4570312 C29.0885414,46.6523447 29.0234379,46.8020828 28.9453125,46.90625 C28.8671871,47.0104172 28.7500008,47.1015621 28.59375,47.1796875 C28.4114574,47.2578129 28.0989605,47.2838543 27.65625,47.2578125 C27.2135395,47.2317707 26.9010426,47.1666672 26.71875,47.0625 C26.3802066,46.8541656 26.0872408,46.4765652 25.8398437,45.9296875 C25.5924467,45.3828098 25.46875,44.9010438 25.46875,44.484375 C25.46875,44.223957 25.5013018,43.8789084 25.5664062,43.4492187 C25.6315107,43.0195291 25.6705729,42.6940115 25.6835938,42.4726563 C25.6966146,42.251301 25.6250008,41.9322937 25.46875,41.515625 C25.5468754,41.4635414 25.6640617,41.3398447 25.8203125,41.1445312 C25.9765633,40.9492178 26.1067703,40.8125004 26.2109375,40.734375 C26.2630211,40.7083332 26.3216143,40.6888021 26.3867187,40.6757812 C26.4518232,40.6627604 26.5104164,40.6627604 26.5625,40.6757812 C26.6145836,40.6888021 26.6666664,40.6692711 26.71875,40.6171875 C26.7708336,40.5651039 26.8098957,40.4869797 26.8359375,40.3828125 C26.8098957,40.3567707 26.7578129,40.3177086 26.6796875,40.265625 C26.6015621,40.1874996 26.5494793,40.1484375 26.5234375,40.1484375 C26.7057301,40.2265629 27.0768201,40.2070318 27.6367187,40.0898437 C28.1966174,39.9726557 28.5546867,39.9921867 28.7109375,40.1484375 C29.1015645,40.4348973 29.3880199,40.4088559 29.5703125,40.0703125 C29.5703125,40.0442707 29.5377607,39.920574 29.4726563,39.6992188 C29.4075518,39.4778635 29.4010414,39.302084 29.453125,39.171875 C29.583334,39.8750035 29.9609344,39.9921898 30.5859375,39.5234375 C30.6640629,39.6015629 30.8658838,39.6666664 31.1914062,39.71875 C31.5169287,39.7708336 31.744791,39.8359371 31.875,39.9140625 C31.9531254,39.9661461 32.0442703,40.03776 32.1484375,40.1289062 C32.2526047,40.2200525 32.3242186,40.2786457 32.3632812,40.3046875 C32.4023439,40.3307293 32.4674475,40.3242189 32.5585937,40.2851563 C32.64974,40.2460936 32.760416,40.161459 32.890625,40.03125 C33.151043,40.3958352 33.3072914,40.708332 33.359375,40.96875 C33.6458348,42.0104219 33.8932281,42.5833328 34.1015625,42.6875 C34.2838551,42.7656254 34.4270828,42.7916668 34.53125,42.765625 C34.6354172,42.7395832 34.6940104,42.6158865 34.7070313,42.3945312 C34.7200521,42.173176 34.7200521,41.9908861 34.7070313,41.8476562 C34.6940104,41.7044264 34.6744793,41.5416676 34.6484375,41.359375 L34.609375,41.046875 L34.609375,40.34375 L34.5703125,40.03125 C34.1796855,39.9531246 33.9388025,39.7968762 33.8476563,39.5625 C33.75651,39.3281238 33.776041,39.0872408 33.90625,38.8398438 C34.036459,38.5924467 34.2317695,38.3515637 34.4921875,38.1171875 C34.5182293,38.0911457 34.6223949,38.0455732 34.8046875,37.9804687 C34.9869801,37.9153643 35.188801,37.8307297 35.4101562,37.7265625 C35.6315115,37.6223953 35.7942703,37.5182297 35.8984375,37.4140625 C36.4453152,36.9192684 36.6406258,36.4635437 36.484375,36.046875 C36.6666676,36.046875 36.8098953,35.9296887 36.9140625,35.6953125 C36.8880207,35.6953125 36.8229172,35.6562504 36.71875,35.578125 C36.6145828,35.4999996 36.5169275,35.4348961 36.4257812,35.3828125 C36.334635,35.3307289 36.2760418,35.3046875 36.25,35.3046875 C36.4843762,35.1744785 36.5104176,34.9661473 36.328125,34.6796875 C36.458334,34.6015621 36.5559893,34.4583344 36.6210938,34.25 C36.6861982,34.0416656 36.7838535,33.9114586 36.9140625,33.859375 C37.1484387,34.1718766 37.4218734,34.197918 37.734375,33.9375 C37.9427094,33.7291656 37.9557301,33.5208344 37.7734375,33.3125 C37.9036465,33.1302074 38.1705709,32.99349 38.5742187,32.9023438 C38.9778666,32.8111975 39.2187496,32.6875008 39.296875,32.53125 C39.4791676,32.5833336 39.5833332,32.5572922 39.609375,32.453125 C39.6354168,32.3489578 39.6484375,32.1927094 39.6484375,31.984375 C39.6484375,31.7760406 39.6874996,31.6197922 39.765625,31.515625 C39.8697922,31.385416 40.0651027,31.2682297 40.3515625,31.1640625 C40.6380223,31.0598953 40.8072914,30.9947918 40.859375,30.96875 L41.5234375,30.5390625 C41.6015629,30.4348953 41.6015629,30.3828125 41.5234375,30.3828125 C41.9921898,30.4348961 42.3958316,30.2916684 42.734375,29.953125 C42.994793,29.6666652 42.9166687,29.4062512 42.5,29.171875 C42.5781254,29.0156242 42.5390633,28.8919275 42.3828125,28.8007813 C42.2265617,28.709635 42.0312512,28.6380211 41.796875,28.5859375 C41.8750004,28.5598957 42.0247385,28.5533854 42.2460937,28.5664062 C42.467449,28.5794271 42.6041664,28.5598961 42.65625,28.5078125 C43.046877,28.2473945 42.955732,28.0390633 42.3828125,27.8828125 C41.940102,27.7526035 41.3802117,27.908852 40.703125,28.3515625 Z M34.3359375,62.609375 C39.7005477,61.6718703 44.2708145,59.2109574 48.046875,55.2265625 C47.9687496,55.1484371 47.8059908,55.0898439 47.5585938,55.0507813 C47.3111967,55.0117186 47.1484379,54.9661461 47.0703125,54.9140625 C46.6015602,54.7317699 46.2890633,54.6276043 46.1328125,54.6015625 C46.1588543,54.4192699 46.1263025,54.2500008 46.0351562,54.09375 C45.94401,53.9374992 45.8398443,53.8203129 45.7226562,53.7421875 C45.6054682,53.6640621 45.4427094,53.5598965 45.234375,53.4296875 C45.0260406,53.2994785 44.8828129,53.2083336 44.8046875,53.15625 C44.7526039,53.1041664 44.661459,53.0260422 44.53125,52.921875 C44.401041,52.8177078 44.3098961,52.7460939 44.2578125,52.7070312 C44.2057289,52.6679686 44.1080736,52.6093754 43.9648437,52.53125 C43.8216139,52.4531246 43.7109379,52.4270832 43.6328125,52.453125 C43.5546871,52.4791668 43.4244801,52.4921875 43.2421875,52.4921875 L43.125,52.53125 C43.0468746,52.5572918 42.9752607,52.5898436 42.9101563,52.6289062 C42.8450518,52.6679689 42.7734379,52.7070311 42.6953125,52.7460937 C42.6171871,52.7851564 42.5651043,52.8242186 42.5390625,52.8632813 C42.5130207,52.9023439 42.5130207,52.9348957 42.5390625,52.9609375 C41.9921848,52.518227 41.5234395,52.2317715 41.1328125,52.1015625 C41.0026035,52.0755207 40.8593758,52.0039068 40.703125,51.8867187 C40.5468742,51.7695307 40.4101568,51.6783857 40.2929687,51.6132812 C40.1757807,51.5481768 40.0455736,51.5286457 39.9023438,51.5546875 C39.7591139,51.5807293 39.6093758,51.6718742 39.453125,51.828125 C39.322916,51.958334 39.2447918,52.1536445 39.21875,52.4140625 C39.1927082,52.6744805 39.1666668,52.8437496 39.140625,52.921875 C38.9583324,52.791666 38.9583324,52.5638037 39.140625,52.2382812 C39.3229176,51.9127588 39.348959,51.6718758 39.21875,51.515625 C39.1406246,51.3593742 39.0039072,51.3007811 38.8085938,51.3398437 C38.6132803,51.3789064 38.4570318,51.4374996 38.3398437,51.515625 C38.2226557,51.5937504 38.0729176,51.7044264 37.890625,51.8476562 C37.7083324,51.9908861 37.5911461,52.0755207 37.5390625,52.1015625 C37.4869789,52.1276043 37.3763029,52.1992182 37.2070312,52.3164063 C37.0377596,52.4335943 36.9270836,52.5312496 36.875,52.609375 C36.7968746,52.7135422 36.7187504,52.8697906 36.640625,53.078125 C36.5624996,53.2864594 36.4973961,53.4296871 36.4453125,53.5078125 C36.3932289,53.4036453 36.2434908,53.3190107 35.9960937,53.2539062 C35.7486967,53.1888018 35.625,53.1171879 35.625,53.0390625 C35.6770836,53.2994805 35.7291664,53.7552051 35.78125,54.40625 C35.8333336,55.0572949 35.8984371,55.5520816 35.9765625,55.890625 C36.1588551,56.6979207 36.0026066,57.3229145 35.5078125,57.765625 C34.804684,58.4166699 34.4270836,58.937498 34.375,59.328125 C34.2708328,59.9010445 34.4270812,60.2395828 34.84375,60.34375 C34.84375,60.5260426 34.7395844,60.792967 34.53125,61.1445312 C34.3229156,61.4960955 34.2317707,61.7760406 34.2578125,61.984375 C34.2578125,62.1406258 34.2838539,62.348957 34.3359375,62.609375 Z" id="countries"></path>
                        </g>
                    </g>
                </g>
            </g>
        </g>
    </g>
</svg>