<?xml version="1.0" encoding="UTF-8"?>
<svg width="115px" height="60px" viewBox="0 0 115 60" version="1.1" xmlns="http://www.w3.org/2000/svg" xmlns:xlink="http://www.w3.org/1999/xlink">
    <!-- Generator: Sketch 46.2 (44496) - http://www.bohemiancoding.com/sketch -->
    <title>members</title>
    <desc>Created with Sketch.</desc>
    <defs></defs>
    <g id="-home" stroke="none" stroke-width="1" fill="none" fill-rule="evenodd">
        <g id="home" transform="translate(-522.000000, -942.000000)" fill-rule="nonzero" fill="#FFFFFF">
            <g id="members" transform="translate(522.000000, 942.000000)">
                <path d="M82.7750871,47.1333533 C82.7750871,47.1333533 68.511832,43.4669613 66.5000894,39.4775996 C65.58497,37.6517081 66.4895836,35.3129308 67.4049265,33.7041504 C67.8240395,33.1422685 68.2324233,32.5457746 68.6271719,31.9130956 L68.6271719,31.9061283 C71.0090751,28.1071322 72.8252317,23.0924483 73.010312,16.8980372 C73.2894972,7.5851813 66.0771764,0.0211267606 57.5210115,0 L57.5210115,0 C57.5143057,0 57.5069293,0 57.5,0 C57.4964235,0 57.4894942,0 57.4825649,0 L57.4825649,0 C48.9264,0.0211267606 41.7143027,7.5851813 41.9937114,16.8980372 C42.1787917,23.0928978 43.9949483,28.1071322 46.3732751,31.9061283 L46.3732751,31.9061283 L46.3770751,31.9130956 C46.7718237,32.5453251 47.1804309,33.1422685 47.5993205,33.7041504 C48.5144398,35.3124813 49.4224063,37.6514834 48.5003576,39.4775996 C46.4957679,43.4667366 32.2253599,47.1333533 32.2253599,47.1333533 C29.4804488,48.0465238 27.5,50.6446659 27.5,53.7001798 L27.5,60 L87.4999999,60 L87.4999999,53.7001798 C87.500447,50.6446659 85.5237981,48.0465238 82.7750871,47.1333533 Z" id="Shape"></path>
                <path d="M111.54185,49.8741599 L111.54185,49.8676863 C111.38372,49.8183531 101.093395,47.223782 99.6209712,44.3430334 C98.9531393,43.0246529 99.6103992,41.3361615 100.285204,40.1787278 C100.590666,39.7670966 100.889829,39.3347053 101.177746,38.8811074 L101.177746,38.8811074 C102.917393,36.1260359 104.249458,32.5126553 104.387118,28.0407424 C104.590459,21.3095459 99.3119105,15.8473967 93.0418483,15.8333333 L93.0418483,15.8333333 C93.0382493,15.8333333 93.0312763,15.8333333 93.0312763,15.8333333 C93.0243033,15.8333333 93.0171054,15.8333333 93.0137314,15.8333333 L93.0137314,15.8333333 C86.7477179,15.8473967 81.4624209,21.3090994 81.6727351,28.0407424 C81.8063465,32.5119856 83.1381865,36.1255894 84.8778335,38.8811074 L84.8778335,38.8811074 L84.8778335,38.8811074 C85.1695742,39.3344821 85.4682878,39.7673199 85.7775734,40.1787278 C85.8232352,40.255518 85.868897,40.3392283 85.9145588,40.4229385 C90.9965146,42.5087746 94.3491703,47.405489 94.3491703,52.9098282 L94.3491703,59.1666667 L115,59.1666667 L115,54.6184101 C115,52.4066738 113.555693,50.537145 111.54185,49.8741599 Z" id="Shape"></path>
                <path d="M29.2226405,40.1788808 C29.5280668,39.7672433 29.8305693,39.3350685 30.1222761,38.8812404 L30.1222761,38.8812404 L30.1222761,38.8812404 C31.8614968,36.1261262 33.1934074,32.512913 33.3272282,28.0409311 C33.5381928,21.3096305 28.2526083,15.8473969 21.9875455,15.8333333 L21.9875455,15.8333333 C21.9837221,15.8333333 21.9769748,15.8333333 21.9700026,15.8333333 C21.9661792,15.8333333 21.9661792,15.8333333 21.9594319,15.8333333 L21.9594319,15.8333333 C15.6903208,15.8473969 10.4121583,21.3091841 10.6159258,28.0409311 C10.7528953,32.5122433 12.0814323,36.1261262 13.8244764,38.8812404 L13.8244764,38.8812404 C14.1123598,39.3346221 14.4110388,39.7676898 14.7202886,40.1788808 C15.3914168,41.3367788 16.0486007,43.0248499 15.3774725,44.3432508 C13.9049938,47.2242671 3.61968411,49.8188783 3.46157314,49.8679891 L3.46157314,49.874686 C1.44796361,50.5376814 0,52.407239 0,54.6183398 L0,59.1666667 L20.6520364,59.1666667 L20.6520364,52.9095083 C20.6520364,47.4057537 24.0045287,42.5085171 29.0858959,40.4224256 C29.1313275,40.339607 29.176984,40.2558954 29.2226405,40.1788808 Z" id="Shape"></path>
            </g>
        </g>
    </g>
</svg>